# xmcd
#
# Track frame offsets:
#	150
#	10709
#	27859
#	51281
#	60815
#	73941
#	85894
#	99235
#	115219
#	129707
#	141386
#	151276
#	167809
#	180558
#	196452
#	208865
#	224096
#	237153
#	251273
#	265865
#	278292
#	293335
#	309446
#	322574
#	339147
#
# Disc length: 4713 seconds
#
# Revision: 1
# Processed by: cddbd v1.5.2PL0 Copyright (c) Steve Scherf et al.
# Submitted via: audiograbber 1.83.01
#
DISCID=56126719
DTITLE=Teddy Edelmann - 100 Go'e 3
DYEAR=1900
DGENRE=Country
TTITLE0=Hej Bartender
TTITLE1=I Drømmens Stille Verden
TTITLE2=Når Jeg Ser Dig Igen
TTITLE3=Lejesoldaten
TTITLE4=Berømmelsens Pris
TTITLE5=Du Kender Det Igen
TTITLE6=Dengang
TTITLE7=Vi Skal Holde Os Til Livet
TTITLE8=Et Brev Med Små Violer
TTITLE9=Forlad Mig Ikke
TTITLE10=En Lille Bitte Tåre
TTITLE11=En Gylden Drøm
TTITLE12=Går Det Ikk'  Så Går Det Nok
TTITLE13=Hundred År Og En Sommer
TTITLE14=Et Skridt Frem
TTITLE15=To Tilovers
TTITLE16=Hjerter Es
TTITLE17=Mere Sport På Den Anden Kanal
TTITLE18=Har Vi Et Håb
TTITLE19=Fætter Juke Box
TTITLE20=Frøken Danmark
TTITLE21=Uden Ord
TTITLE22=Tempo Tempo
TTITLE23=Mellem Himmel Og Hav
TTITLE24=Hej Daddy
EXTD=
EXTT0=
EXTT1=
EXTT2=
EXTT3=
EXTT4=
EXTT5=
EXTT6=
EXTT7=
EXTT8=
EXTT9=
EXTT10=
EXTT11=
EXTT12=
EXTT13=
EXTT14=
EXTT15=
EXTT16=
EXTT17=
EXTT18=
EXTT19=
EXTT20=
EXTT21=
EXTT22=
EXTT23=
EXTT24=
PLAYORDER=
